<svg width="150" height="150" viewBox="0 0 150 150" fill="none" xmlns="http://www.w3.org/2000/svg">
<rect width="150" height="150" rx="60" fill="#2A2B2C"/>
<path d="M45.327 38.7479C56.7545 32.8755 70.6182 36.7338 77.4628 47.2869C79.3244 45.3374 81.5367 43.6587 84.0692 42.3572C96.2542 36.0956 111.209 40.898 117.471 53.0828C123.732 65.2678 118.931 80.2223 106.746 86.4842C102.657 88.5852 98.2565 89.4384 93.9774 89.1873C97.8986 100.648 92.9263 113.551 81.8339 119.252C69.6488 125.513 54.6942 120.711 48.4325 108.526C44.3741 100.628 44.9642 91.5681 49.1991 84.4647C43.1063 82.5413 37.7536 78.2808 34.6024 72.1492C28.3408 59.9643 33.1423 45.0097 45.327 38.7479ZM82.4745 69.0984C80.8138 64.079 75.3983 61.3567 70.3788 63.0174C65.3593 64.6781 62.636 70.0936 64.2968 75.1131C65.9576 80.1323 71.3732 82.8547 76.3925 81.1941C81.412 79.5334 84.1352 74.1179 82.4745 69.0984Z" fill="#D2A822"/>
</svg>
