<svg width="159" height="48" viewBox="0 0 159 48" fill="none" xmlns="http://www.w3.org/2000/svg">
<path d="M6.688 16.1485V35.7645H16.48V39.5405H2.592V16.1485H6.688ZM23.9388 39.9565C20.5788 39.9565 18.5308 38.0045 18.5308 35.0285C18.5308 32.1165 20.6428 30.2925 24.3868 30.0045L29.1228 29.6525V29.3005C29.1228 27.1565 27.8428 26.2925 25.8588 26.2925C23.5548 26.2925 22.2748 27.2525 22.2748 28.9165H18.9468C18.9468 25.4925 21.7628 23.2525 26.0508 23.2525C30.3068 23.2525 32.9308 25.5565 32.9308 29.9405V39.5405H29.5068L29.2188 37.2045C28.5468 38.8365 26.4028 39.9565 23.9388 39.9565ZM25.2188 37.0125C27.6188 37.0125 29.1548 35.5725 29.1548 33.1405V32.3085L25.8588 32.5645C23.4268 32.7885 22.4988 33.5885 22.4988 34.8685C22.4988 36.3085 23.4588 37.0125 25.2188 37.0125ZM58.767 29.9725H50.063V39.5405H45.967V16.1485H60.431V19.9245H50.063V26.2925H58.767V29.9725ZM67.4833 39.5405H63.6113V15.7325H67.4833V39.5405ZM78.6505 39.9565C73.9465 39.9565 70.6505 36.5325 70.6505 31.6365C70.6505 26.6765 73.8825 23.2525 78.5225 23.2525C83.2585 23.2525 86.2665 26.4205 86.2665 31.3485V32.5325L74.3625 32.5645C74.6505 35.3485 76.1225 36.7565 78.7145 36.7565C80.8585 36.7565 82.2665 35.9245 82.7145 34.4205H86.3305C85.6585 37.8765 82.7785 39.9565 78.6505 39.9565ZM78.5545 26.4525C76.2505 26.4525 74.8425 27.7005 74.4585 30.0685H82.3945C82.3945 27.8925 80.8905 26.4525 78.5545 26.4525ZM100.111 23.7325H104.015V39.5405H100.399L100.111 37.4285C99.151 38.9325 97.103 39.9565 94.991 39.9565C91.343 39.9565 89.199 37.4925 89.199 33.6205V23.7325H93.103V32.2445C93.103 35.2525 94.287 36.4685 96.463 36.4685C98.927 36.4685 100.111 35.0285 100.111 32.0205V23.7325ZM117.967 23.6685V27.2845H116.527C113.711 27.2845 111.951 28.7885 111.951 31.8605V39.5405H108.047V23.7645H111.727L111.951 26.0685C112.623 24.5005 114.127 23.4445 116.239 23.4445C116.783 23.4445 117.327 23.5085 117.967 23.6685Z" fill="white"/>
<path d="M127.431 8.0615C131.321 6.06306 136.039 7.37635 138.369 10.9687C139.002 10.305 139.755 9.73306 140.617 9.29002C144.764 7.15888 149.854 8.79327 151.985 12.9404C154.116 17.0873 152.481 22.1764 148.334 24.3076C146.942 25.0229 145.444 25.3124 143.987 25.2265C145.322 29.1276 143.632 33.5206 139.856 35.4609C135.709 37.592 130.619 35.9566 128.488 31.8095C127.106 29.1214 127.309 26.0377 128.75 23.6201C126.676 22.9657 124.852 21.5172 123.78 19.4297C121.649 15.2825 123.284 10.1926 127.431 8.0615ZM140.074 18.3926C139.508 16.6842 137.665 15.757 135.956 16.3222C134.248 16.8876 133.322 18.7312 133.887 20.4394C134.452 22.1474 136.295 23.0738 138.003 22.5088C139.712 21.9436 140.639 20.1008 140.074 18.3926Z" fill="#CB983A"/>
</svg>
