<svg width="159" height="53" viewBox="0 0 159 53" fill="none" xmlns="http://www.w3.org/2000/svg">
<path d="M6.688 16.149V35.765H16.48V39.541H2.592V16.149H6.688ZM23.9388 39.957C20.5788 39.957 18.5308 38.005 18.5308 35.029C18.5308 32.117 20.6428 30.293 24.3868 30.005L29.1228 29.653V29.301C29.1228 27.157 27.8428 26.293 25.8588 26.293C23.5548 26.293 22.2748 27.253 22.2748 28.917H18.9468C18.9468 25.493 21.7628 23.253 26.0508 23.253C30.3068 23.253 32.9308 25.557 32.9308 29.941V39.541H29.5068L29.2188 37.205C28.5468 38.837 26.4028 39.957 23.9388 39.957ZM25.2188 37.013C27.6188 37.013 29.1548 35.573 29.1548 33.141V32.309L25.8588 32.565C23.4268 32.789 22.4988 33.589 22.4988 34.869C22.4988 36.309 23.4588 37.013 25.2188 37.013ZM58.767 29.973H50.063V39.541H45.967V16.149H60.431V19.925H50.063V26.293H58.767V29.973ZM67.4833 39.541H63.6113V15.733H67.4833V39.541ZM78.6505 39.957C73.9465 39.957 70.6505 36.533 70.6505 31.637C70.6505 26.677 73.8825 23.253 78.5225 23.253C83.2585 23.253 86.2665 26.421 86.2665 31.349V32.533L74.3625 32.565C74.6505 35.349 76.1225 36.757 78.7145 36.757C80.8585 36.757 82.2665 35.925 82.7145 34.421H86.3305C85.6585 37.877 82.7785 39.957 78.6505 39.957ZM78.5545 26.453C76.2505 26.453 74.8425 27.701 74.4585 30.069H82.3945C82.3945 27.893 80.8905 26.453 78.5545 26.453ZM100.111 23.733H104.015V39.541H100.399L100.111 37.429C99.151 38.933 97.103 39.957 94.991 39.957C91.343 39.957 89.199 37.493 89.199 33.621V23.733H93.103V32.245C93.103 35.253 94.287 36.469 96.463 36.469C98.927 36.469 100.111 35.029 100.111 32.021V23.733ZM117.967 23.669V27.285H116.527C113.711 27.285 111.951 28.789 111.951 31.861V39.541H108.047V23.765H111.727L111.951 26.069C112.623 24.501 114.127 23.445 116.239 23.445C116.783 23.445 117.327 23.509 117.967 23.669Z" fill="white"/>
<path d="M127.43 8.06101C131.32 6.06257 136.038 7.37586 138.368 10.9682C139.001 10.3046 139.754 9.73257 140.616 9.28953C144.763 7.15839 149.853 8.79278 151.984 12.9399C154.115 17.0868 152.48 22.1759 148.333 24.3071C146.941 25.0224 145.443 25.3119 143.986 25.2261C145.321 29.1271 143.631 33.5201 139.855 35.4604C135.708 37.5915 130.618 35.9562 128.487 31.8091C127.105 29.1209 127.308 26.0373 128.749 23.6196C126.675 22.9652 124.851 21.5167 123.779 19.4292C121.648 15.2821 123.283 10.1921 127.43 8.06101ZM140.073 18.3921C139.507 16.6837 137.664 15.7565 135.955 16.3218C134.247 16.8871 133.321 18.7307 133.886 20.4389C134.452 22.1469 136.294 23.0733 138.002 22.5083C139.711 21.9431 140.638 20.1003 140.073 18.3921Z" fill="url(#paint0_linear_228_656)"/>
<defs>
<linearGradient id="paint0_linear_228_656" x1="122.844" y1="7.12598" x2="151.301" y2="36.1556" gradientUnits="userSpaceOnUse">
<stop offset="0.194632" stop-color="#92FE9D"/>
<stop offset="0.194732" stop-color="#92FE9D"/>
<stop offset="1" stop-color="#00C9FF"/>
</linearGradient>
</defs>
</svg>
